# xmcd
#
# Track frame offsets:
# 150
# 10995
# 22886
# 34173
# 45621
# 58268
# 69659
# 81042
# 92329
# 103248
# 114265
# 124559
# 135790
# 147646
# 158681
# 167280
# 177141
# 186891
# 196372
# 205258
# 215709
#
# Disc length: 3002 seconds
#
# Revision: 0
# Processed by: cddbd v1.5.1PL2 Copyright (c) Steve Scherf et al.
# Submitted via: Axialis_AX_CDPlayer 2.6
#
DISCID=1a0bb815
DTITLE=Paul Anka - 21 Golden hits
DYEAR=1900
DGENRE=
TTITLE0=Diana
TTITLE1=Put your head on my shoulder
TTITLE2=Lonely boy
TTITLE3=Time to cry
TTITLE4=Puppy love
TTITLE5=I love you in the same old way
TTITLE6=You are my destiny
TTITLE7=Crazy love
TTITLE8=Don't ever leave me
TTITLE9=Summer's gone
TTITLE10=Adam et Eve
TTITLE11=Don't gamble with move
TTITLE12=I'm still waiting here for you
TTITLE13=I love you baby
TTITLE14=It doesn't matter any more
TTITLE15=Tonight my love, tonight
TTITLE16=My home town
TTITLE17=Cinderella
TTITLE18=Love land
TTITLE19=Dance on little girl
TTITLE20=The longest day
EXTD=
EXTT0=
EXTT1=
EXTT2=
EXTT3=
EXTT4=
EXTT5=
EXTT6=
EXTT7=
EXTT8=
EXTT9=
EXTT10=
EXTT11=
EXTT12=
EXTT13=
EXTT14=
EXTT15=
EXTT16=
EXTT17=
EXTT18=
EXTT19=
EXTT20=
PLAYORDER=
